<svg width="182" height="76" viewBox="0 0 182 76" fill="none" xmlns="http://www.w3.org/2000/svg">
<path d="M70.9519 26.196C70.4946 26.196 70.1352 26.0653 69.8739 25.804C69.6289 25.5427 69.5064 25.1752 69.5064 24.7015V10.026C69.5064 9.536 69.6289 9.1685 69.8739 8.9235C70.1352 8.66217 70.4946 8.5315 70.9519 8.5315C71.4092 8.5315 71.7604 8.66217 72.0054 8.9235C72.2504 9.1685 72.3729 9.536 72.3729 10.026V24.7015C72.3729 25.1752 72.2504 25.5427 72.0054 25.804C71.7767 26.0653 71.4256 26.196 70.9519 26.196ZM76.6449 26.196C76.2202 26.196 75.8854 26.0735 75.6404 25.8285C75.4117 25.5835 75.2974 25.2405 75.2974 24.7995V9.977C75.2974 9.51967 75.4117 9.1685 75.6404 8.9235C75.8854 8.66217 76.1957 8.5315 76.5714 8.5315C76.9144 8.5315 77.1675 8.59683 77.3309 8.7275C77.5105 8.85817 77.7147 9.0705 77.9434 9.3645L87.6454 22.0555H87.0329V9.9035C87.0329 9.47883 87.1472 9.144 87.3759 8.899C87.6045 8.654 87.9394 8.5315 88.3804 8.5315C88.805 8.5315 89.1235 8.654 89.3359 8.899C89.5645 9.144 89.6789 9.47883 89.6789 9.9035V24.8485C89.6789 25.2568 89.5727 25.5835 89.3604 25.8285C89.1644 26.0735 88.8867 26.196 88.5274 26.196C88.1844 26.196 87.9067 26.1307 87.6944 26C87.4984 25.853 87.286 25.6325 87.0574 25.3385L77.3799 12.6475H77.9679V24.7995C77.9679 25.2405 77.8535 25.5835 77.6249 25.8285C77.4125 26.0735 77.0859 26.196 76.6449 26.196ZM99.3342 26.196C98.9258 26.196 98.591 26.098 98.3297 25.902C98.0683 25.706 97.856 25.4202 97.6927 25.0445L91.2002 10.4425C91.0368 10.0668 90.9878 9.74017 91.0532 9.4625C91.1348 9.1685 91.2982 8.93983 91.5432 8.7765C91.7882 8.61317 92.074 8.5315 92.4007 8.5315C92.8253 8.5315 93.1438 8.6295 93.3562 8.8255C93.5848 9.00517 93.7727 9.28283 93.9197 9.6585L99.8732 23.501H98.8932L104.847 9.634C105.01 9.27467 105.198 9.00517 105.41 8.8255C105.639 8.6295 105.957 8.5315 106.366 8.5315C106.692 8.5315 106.962 8.61317 107.174 8.7765C107.403 8.93983 107.542 9.1685 107.591 9.4625C107.656 9.74017 107.607 10.0668 107.444 10.4425L100.951 25.0445C100.788 25.4202 100.584 25.706 100.339 25.902C100.094 26.098 99.7588 26.196 99.3342 26.196ZM110.384 26.196C109.927 26.196 109.568 26.0653 109.306 25.804C109.061 25.5427 108.939 25.1752 108.939 24.7015V10.026C108.939 9.536 109.061 9.1685 109.306 8.9235C109.568 8.66217 109.927 8.5315 110.384 8.5315C110.842 8.5315 111.193 8.66217 111.438 8.9235C111.683 9.1685 111.805 9.536 111.805 10.026V24.7015C111.805 25.1752 111.683 25.5427 111.438 25.804C111.209 26.0653 110.858 26.196 110.384 26.196ZM120.61 26.245C119.875 26.245 119.148 26.1878 118.429 26.0735C117.711 25.9592 117.033 25.7877 116.396 25.559C115.759 25.3303 115.187 25.0527 114.681 24.726C114.403 24.53 114.207 24.3095 114.093 24.0645C113.995 23.8032 113.962 23.55 113.995 23.305C114.044 23.06 114.15 22.8477 114.313 22.668C114.477 22.472 114.681 22.3577 114.926 22.325C115.171 22.276 115.432 22.3413 115.71 22.521C116.429 22.962 117.188 23.2887 117.988 23.501C118.805 23.697 119.679 23.795 120.61 23.795C121.933 23.795 122.905 23.5663 123.525 23.109C124.146 22.6517 124.456 22.0555 124.456 21.3205C124.456 20.6998 124.236 20.218 123.795 19.875C123.354 19.532 122.603 19.2462 121.541 19.0175L118.895 18.454C117.343 18.1437 116.184 17.6047 115.416 16.837C114.665 16.0693 114.289 15.0485 114.289 13.7745C114.289 12.9742 114.444 12.2555 114.754 11.6185C115.081 10.9652 115.538 10.4098 116.126 9.9525C116.714 9.47883 117.417 9.1195 118.233 8.8745C119.05 8.61317 119.94 8.4825 120.904 8.4825C121.9 8.4825 122.839 8.61317 123.721 8.8745C124.62 9.1195 125.42 9.49517 126.122 10.0015C126.367 10.1648 126.531 10.369 126.612 10.614C126.694 10.859 126.71 11.104 126.661 11.349C126.612 11.5777 126.506 11.7737 126.343 11.937C126.18 12.1003 125.967 12.1983 125.706 12.231C125.461 12.2473 125.183 12.1657 124.873 11.986C124.252 11.6103 123.615 11.3408 122.962 11.1775C122.325 11.0142 121.639 10.9325 120.904 10.9325C120.12 10.9325 119.442 11.0468 118.87 11.2755C118.315 11.4878 117.882 11.7982 117.572 12.2065C117.278 12.6148 117.131 13.1048 117.131 13.6765C117.131 14.2972 117.335 14.8035 117.743 15.1955C118.168 15.5712 118.87 15.857 119.85 16.053L122.496 16.6165C124.113 16.9595 125.314 17.4903 126.098 18.209C126.898 18.9277 127.298 19.8995 127.298 21.1245C127.298 21.8922 127.143 22.5945 126.833 23.2315C126.523 23.8522 126.073 24.3912 125.485 24.8485C124.897 25.2895 124.195 25.6325 123.378 25.8775C122.562 26.1225 121.639 26.245 120.61 26.245ZM130.556 26.196C130.098 26.196 129.739 26.0653 129.478 25.804C129.233 25.5427 129.11 25.1752 129.11 24.7015V10.026C129.11 9.536 129.233 9.1685 129.478 8.9235C129.739 8.66217 130.098 8.5315 130.556 8.5315C131.013 8.5315 131.364 8.66217 131.609 8.9235C131.854 9.1685 131.977 9.536 131.977 10.026V24.7015C131.977 25.1752 131.854 25.5427 131.609 25.804C131.381 26.0653 131.029 26.196 130.556 26.196ZM136.445 26C135.955 26 135.571 25.8693 135.293 25.608C135.032 25.3467 134.901 24.971 134.901 24.481V10.2465C134.901 9.7565 135.032 9.38083 135.293 9.1195C135.571 8.85817 135.955 8.7275 136.445 8.7275H142.3C143.509 8.7275 144.53 8.90717 145.363 9.2665C146.212 9.62583 146.857 10.1403 147.298 10.81C147.756 11.4797 147.984 12.28 147.984 13.211C147.984 14.2727 147.674 15.1628 147.053 15.8815C146.449 16.6002 145.624 17.082 144.579 17.327V16.9595C145.787 17.1228 146.727 17.572 147.396 18.307C148.082 19.042 148.425 20.0057 148.425 21.198C148.425 22.7333 147.911 23.9175 146.882 24.7505C145.853 25.5835 144.415 26 142.57 26H136.445ZM137.67 23.8195H142.227C143.386 23.8195 144.244 23.5908 144.799 23.1335C145.355 22.6762 145.632 21.9902 145.632 21.0755C145.632 20.1445 145.355 19.4585 144.799 19.0175C144.244 18.5602 143.386 18.3315 142.227 18.3315H137.67V23.8195ZM137.67 16.151H141.81C142.954 16.151 143.803 15.9305 144.358 15.4895C144.914 15.0485 145.191 14.3952 145.191 13.5295C145.191 12.6638 144.914 12.0105 144.358 11.5695C143.803 11.1285 142.954 10.908 141.81 10.908H137.67V16.151ZM152.163 26C151.706 26 151.347 25.8693 151.085 25.608C150.824 25.3467 150.693 24.9873 150.693 24.53V10.0995C150.693 9.62583 150.816 9.2665 151.061 9.0215C151.322 8.7765 151.681 8.654 152.139 8.654C152.596 8.654 152.947 8.7765 153.192 9.0215C153.437 9.2665 153.56 9.62583 153.56 10.0995V23.55H160.885C161.294 23.55 161.604 23.6562 161.816 23.8685C162.045 24.0808 162.159 24.383 162.159 24.775C162.159 25.1507 162.045 25.4528 161.816 25.6815C161.604 25.8938 161.294 26 160.885 26H152.163ZM164.894 26C164.404 26 164.021 25.8693 163.743 25.608C163.482 25.3467 163.351 24.971 163.351 24.481V10.2465C163.351 9.7565 163.482 9.38083 163.743 9.1195C164.021 8.85817 164.404 8.7275 164.894 8.7275H173.714C174.09 8.7275 174.376 8.8255 174.572 9.0215C174.784 9.2175 174.89 9.49517 174.89 9.8545C174.89 10.2302 174.784 10.5242 174.572 10.7365C174.376 10.9325 174.09 11.0305 173.714 11.0305H166.119V16.0775H173.2C173.592 16.0775 173.886 16.1755 174.082 16.3715C174.278 16.5675 174.376 16.8533 174.376 17.229C174.376 17.6047 174.278 17.8905 174.082 18.0865C173.886 18.2825 173.592 18.3805 173.2 18.3805H166.119V23.697H173.714C174.09 23.697 174.376 23.795 174.572 23.991C174.784 24.187 174.89 24.4728 174.89 24.8485C174.89 25.2242 174.784 25.51 174.572 25.706C174.376 25.902 174.09 26 173.714 26H164.894Z" fill="#147DC4"/>
<path d="M74.4755 53.1227C74.3795 53.1227 74.3022 53.0987 74.2435 53.0507C74.1849 52.9973 74.1369 52.92 74.0995 52.8187L72.3315 47.7706C72.2942 47.6587 72.3022 47.5653 72.3555 47.4907C72.4142 47.4107 72.5049 47.3707 72.6275 47.3707C72.7182 47.3707 72.7902 47.3947 72.8435 47.4427C72.8969 47.4853 72.9422 47.5546 72.9795 47.6507L74.6355 52.5067H74.3555L76.0435 47.6747C76.0809 47.5733 76.1262 47.4987 76.1795 47.4507C76.2329 47.3973 76.3049 47.3707 76.3955 47.3707C76.4809 47.3707 76.5475 47.3973 76.5955 47.4507C76.6489 47.4987 76.6942 47.5733 76.7315 47.6747L78.3955 52.5067H78.1475L79.8195 47.6507C79.8462 47.56 79.8862 47.4907 79.9395 47.4427C79.9982 47.3947 80.0729 47.3707 80.1635 47.3707C80.2755 47.3707 80.3582 47.408 80.4115 47.4827C80.4649 47.5573 80.4702 47.6533 80.4275 47.7706L78.6515 52.8187C78.6142 52.92 78.5662 52.9973 78.5075 53.0507C78.4542 53.0987 78.3769 53.1227 78.2755 53.1227C78.1795 53.1227 78.1022 53.0987 78.0435 53.0507C77.9902 52.9973 77.9422 52.92 77.8995 52.8187L76.2915 48.1867H76.4675L74.8435 52.8187C74.8062 52.92 74.7609 52.9973 74.7075 53.0507C74.6542 53.0987 74.5769 53.1227 74.4755 53.1227ZM83.2402 53.1227C83.1335 53.1227 83.0509 53.0933 82.9922 53.0347C82.9389 52.9707 82.9122 52.8853 82.9122 52.7787V47.7147C82.9122 47.6027 82.9389 47.5173 82.9922 47.4587C83.0509 47.4 83.1335 47.3707 83.2402 47.3707C83.3469 47.3707 83.4269 47.4 83.4802 47.4587C83.5389 47.5173 83.5682 47.6027 83.5682 47.7147V52.7787C83.5682 52.8853 83.5415 52.9707 83.4882 53.0347C83.4349 53.0933 83.3522 53.1227 83.2402 53.1227ZM86.7189 53.1227C86.6176 53.1227 86.5402 53.096 86.4869 53.0427C86.4336 52.984 86.4069 52.9013 86.4069 52.7947V47.7067C86.4069 47.6 86.4336 47.5173 86.4869 47.4587C86.5402 47.4 86.6096 47.3707 86.6949 47.3707C86.7802 47.3707 86.8416 47.3867 86.8789 47.4187C86.9216 47.4453 86.9696 47.496 87.0229 47.5707L90.5109 52.2187H90.3189V47.6906C90.3189 47.5893 90.3456 47.512 90.3989 47.4587C90.4522 47.4 90.5296 47.3707 90.6309 47.3707C90.7269 47.3707 90.7989 47.4 90.8469 47.4587C90.9002 47.512 90.9269 47.5893 90.9269 47.6906V52.8027C90.9269 52.904 90.9029 52.984 90.8549 53.0427C90.8122 53.096 90.7482 53.1227 90.6629 53.1227C90.5829 53.1227 90.5189 53.1067 90.4709 53.0747C90.4229 53.0427 90.3722 52.992 90.3189 52.9227L86.8389 48.2747H87.0229V52.7947C87.0229 52.9013 86.9962 52.984 86.9429 53.0427C86.8896 53.096 86.8149 53.1227 86.7189 53.1227ZM94.1288 53.0667C94.0114 53.0667 93.9208 53.0373 93.8568 52.9787C93.7981 52.9147 93.7688 52.824 93.7688 52.7067V47.7867C93.7688 47.6693 93.7981 47.5813 93.8568 47.5227C93.9208 47.4587 94.0114 47.4267 94.1288 47.4267H95.6728C96.5848 47.4267 97.2888 47.6667 97.7848 48.1467C98.2808 48.6267 98.5288 49.3253 98.5288 50.2427C98.5288 50.7013 98.4648 51.1067 98.3368 51.4587C98.2141 51.8053 98.0301 52.0987 97.7848 52.3387C97.5394 52.5787 97.2408 52.76 96.8888 52.8827C96.5368 53.0053 96.1314 53.0667 95.6728 53.0667H94.1288ZM94.4248 52.5067H95.6248C95.9981 52.5067 96.3208 52.4587 96.5928 52.3627C96.8701 52.2667 97.0994 52.1253 97.2808 51.9387C97.4674 51.752 97.6061 51.5173 97.6968 51.2347C97.7874 50.9467 97.8328 50.616 97.8328 50.2427C97.8328 49.4907 97.6488 48.928 97.2808 48.5547C96.9128 48.176 96.3608 47.9866 95.6248 47.9866H94.4248V52.5067ZM103.514 53.1387C102.992 53.1387 102.536 53.0213 102.146 52.7867C101.762 52.5467 101.464 52.2107 101.25 51.7787C101.042 51.3467 100.938 50.8347 100.938 50.2427C100.938 49.7947 100.997 49.3947 101.114 49.0427C101.237 48.6853 101.41 48.384 101.634 48.1386C101.858 47.888 102.128 47.696 102.442 47.5627C102.762 47.424 103.12 47.3547 103.514 47.3547C104.048 47.3547 104.506 47.472 104.89 47.7067C105.28 47.9413 105.578 48.2747 105.786 48.7067C106 49.1333 106.106 49.6427 106.106 50.2347C106.106 50.6827 106.045 51.0853 105.922 51.4427C105.8 51.8 105.626 52.104 105.402 52.3547C105.178 52.6053 104.906 52.8 104.586 52.9387C104.272 53.072 103.914 53.1387 103.514 53.1387ZM103.514 52.5547C103.92 52.5547 104.261 52.464 104.538 52.2827C104.821 52.1013 105.037 51.8373 105.186 51.4907C105.336 51.144 105.41 50.728 105.41 50.2427C105.41 49.512 105.245 48.9467 104.914 48.5467C104.589 48.1413 104.122 47.9387 103.514 47.9387C103.12 47.9387 102.781 48.0293 102.498 48.2106C102.221 48.392 102.008 48.656 101.858 49.0027C101.709 49.344 101.634 49.7573 101.634 50.2427C101.634 50.968 101.8 51.536 102.13 51.9467C102.461 52.352 102.922 52.5547 103.514 52.5547ZM110.402 53.1227C110.306 53.1227 110.229 53.0987 110.17 53.0507C110.111 52.9973 110.063 52.92 110.026 52.8187L108.258 47.7706C108.221 47.6587 108.229 47.5653 108.282 47.4907C108.341 47.4107 108.431 47.3707 108.554 47.3707C108.645 47.3707 108.717 47.3947 108.77 47.4427C108.823 47.4853 108.869 47.5546 108.906 47.6507L110.562 52.5067H110.282L111.97 47.6747C112.007 47.5733 112.053 47.4987 112.106 47.4507C112.159 47.3973 112.231 47.3707 112.322 47.3707C112.407 47.3707 112.474 47.3973 112.522 47.4507C112.575 47.4987 112.621 47.5733 112.658 47.6747L114.322 52.5067H114.074L115.746 47.6507C115.773 47.56 115.813 47.4907 115.866 47.4427C115.925 47.3947 115.999 47.3707 116.09 47.3707C116.202 47.3707 116.285 47.408 116.338 47.4827C116.391 47.5573 116.397 47.6533 116.354 47.7706L114.578 52.8187C114.541 52.92 114.493 52.9973 114.434 53.0507C114.381 53.0987 114.303 53.1227 114.202 53.1227C114.106 53.1227 114.029 53.0987 113.97 53.0507C113.917 52.9973 113.869 52.92 113.826 52.8187L112.218 48.1867H112.394L110.77 52.8187C110.733 52.92 110.687 52.9973 110.634 53.0507C110.581 53.0987 110.503 53.1227 110.402 53.1227ZM124.781 53.1387C124.227 53.1387 123.752 53.0213 123.357 52.7867C122.963 52.552 122.659 52.2187 122.445 51.7867C122.237 51.3547 122.133 50.84 122.133 50.2427C122.133 49.7947 122.192 49.3947 122.309 49.0427C122.432 48.6853 122.605 48.384 122.829 48.1386C123.059 47.888 123.339 47.696 123.669 47.5627C124 47.424 124.371 47.3547 124.781 47.3547C125.112 47.3547 125.427 47.4027 125.725 47.4987C126.024 47.5893 126.283 47.7253 126.501 47.9067C126.571 47.96 126.616 48.0213 126.637 48.0907C126.664 48.1547 126.667 48.2187 126.645 48.2826C126.629 48.3413 126.597 48.392 126.549 48.4346C126.507 48.472 126.453 48.4907 126.389 48.4907C126.325 48.4907 126.253 48.464 126.173 48.4107C125.981 48.256 125.771 48.1413 125.541 48.0667C125.312 47.992 125.064 47.9546 124.797 47.9546C124.376 47.9546 124.019 48.0453 123.725 48.2267C123.432 48.4027 123.211 48.6613 123.061 49.0027C122.912 49.344 122.837 49.7573 122.837 50.2427C122.837 50.728 122.912 51.144 123.061 51.4907C123.211 51.832 123.432 52.0933 123.725 52.2747C124.019 52.4507 124.376 52.5387 124.797 52.5387C125.059 52.5387 125.307 52.5013 125.541 52.4267C125.776 52.3467 125.992 52.2293 126.189 52.0747C126.269 52.0213 126.341 51.9973 126.405 52.0027C126.469 52.0027 126.523 52.0213 126.565 52.0587C126.608 52.096 126.637 52.144 126.653 52.2027C126.675 52.2613 126.675 52.3227 126.653 52.3867C126.637 52.4507 126.597 52.5067 126.533 52.5547C126.309 52.7467 126.045 52.8933 125.741 52.9947C125.443 53.0907 125.123 53.1387 124.781 53.1387ZM129.5 53.0667C129.393 53.0667 129.311 53.0373 129.252 52.9787C129.193 52.9147 129.164 52.8293 129.164 52.7227V47.7306C129.164 47.6187 129.191 47.5333 129.244 47.4746C129.303 47.416 129.385 47.3867 129.492 47.3867C129.599 47.3867 129.679 47.416 129.732 47.4746C129.791 47.5333 129.82 47.6187 129.82 47.7306V52.4907H132.444C132.54 52.4907 132.615 52.5173 132.668 52.5707C132.721 52.6187 132.748 52.688 132.748 52.7787C132.748 52.8693 132.721 52.9413 132.668 52.9947C132.615 53.0427 132.54 53.0667 132.444 53.0667H129.5ZM135.308 53.0667C135.19 53.0667 135.1 53.0373 135.036 52.9787C134.977 52.9147 134.948 52.824 134.948 52.7067V47.7867C134.948 47.6693 134.977 47.5813 135.036 47.5227C135.1 47.4587 135.19 47.4267 135.308 47.4267H138.284C138.374 47.4267 138.444 47.4507 138.492 47.4987C138.54 47.5467 138.564 47.6133 138.564 47.6987C138.564 47.7893 138.54 47.8587 138.492 47.9067C138.444 47.9547 138.374 47.9787 138.284 47.9787H135.588V49.9307H138.116C138.206 49.9307 138.276 49.9547 138.324 50.0027C138.372 50.0453 138.396 50.112 138.396 50.2027C138.396 50.2933 138.372 50.3627 138.324 50.4107C138.276 50.4587 138.206 50.4827 138.116 50.4827H135.588V52.5147H138.284C138.374 52.5147 138.444 52.5387 138.492 52.5867C138.54 52.6347 138.564 52.7013 138.564 52.7867C138.564 52.8773 138.54 52.9467 138.492 52.9947C138.444 53.0427 138.374 53.0667 138.284 53.0667H135.308ZM140.823 53.1227C140.737 53.1227 140.668 53.104 140.615 53.0667C140.567 53.024 140.537 52.9707 140.527 52.9067C140.521 52.8373 140.537 52.76 140.575 52.6747L142.775 47.6667C142.823 47.56 142.879 47.4853 142.943 47.4427C143.012 47.3947 143.087 47.3707 143.167 47.3707C143.247 47.3707 143.319 47.3947 143.383 47.4427C143.452 47.4853 143.508 47.56 143.551 47.6667L145.759 52.6747C145.801 52.76 145.817 52.8373 145.807 52.9067C145.801 52.976 145.775 53.0293 145.727 53.0667C145.679 53.104 145.612 53.1227 145.527 53.1227C145.431 53.1227 145.353 53.0987 145.295 53.0507C145.236 52.9973 145.188 52.9227 145.151 52.8267L144.559 51.4587L144.879 51.6267H141.439L141.767 51.4587L141.183 52.8267C141.135 52.928 141.084 53.0027 141.031 53.0507C140.977 53.0987 140.908 53.1227 140.823 53.1227ZM143.159 48.1947L141.871 51.2267L141.679 51.0747H144.639L144.463 51.2267L143.175 48.1947H143.159ZM148.523 53.1227C148.421 53.1227 148.344 53.096 148.291 53.0427C148.237 52.984 148.211 52.9013 148.211 52.7947V47.7067C148.211 47.6 148.237 47.5173 148.291 47.4587C148.344 47.4 148.413 47.3707 148.499 47.3707C148.584 47.3707 148.645 47.3867 148.683 47.4187C148.725 47.4453 148.773 47.496 148.827 47.5707L152.315 52.2187H152.123V47.6906C152.123 47.5893 152.149 47.512 152.203 47.4587C152.256 47.4 152.333 47.3707 152.435 47.3707C152.531 47.3707 152.603 47.4 152.651 47.4587C152.704 47.512 152.731 47.5893 152.731 47.6906V52.8027C152.731 52.904 152.707 52.984 152.659 53.0427C152.616 53.096 152.552 53.1227 152.467 53.1227C152.387 53.1227 152.323 53.1067 152.275 53.0747C152.227 53.0427 152.176 52.992 152.123 52.9227L148.643 48.2747H148.827V52.7947C148.827 52.9013 148.8 52.984 148.747 53.0427C148.693 53.096 148.619 53.1227 148.523 53.1227ZM155.901 53.1227C155.794 53.1227 155.711 53.0933 155.653 53.0347C155.599 52.9707 155.573 52.8853 155.573 52.7787V47.7147C155.573 47.6027 155.599 47.5173 155.653 47.4587C155.711 47.4 155.794 47.3707 155.901 47.3707C156.007 47.3707 156.087 47.4 156.141 47.4587C156.199 47.5173 156.229 47.6027 156.229 47.7147V52.7787C156.229 52.8853 156.202 52.9707 156.149 53.0347C156.095 53.0933 156.013 53.1227 155.901 53.1227ZM159.379 53.1227C159.278 53.1227 159.201 53.096 159.147 53.0427C159.094 52.984 159.067 52.9013 159.067 52.7947V47.7067C159.067 47.6 159.094 47.5173 159.147 47.4587C159.201 47.4 159.27 47.3707 159.355 47.3707C159.441 47.3707 159.502 47.3867 159.539 47.4187C159.582 47.4453 159.63 47.496 159.683 47.5707L163.171 52.2187H162.979V47.6906C162.979 47.5893 163.006 47.512 163.059 47.4587C163.113 47.4 163.19 47.3707 163.291 47.3707C163.387 47.3707 163.459 47.4 163.507 47.4587C163.561 47.512 163.587 47.5893 163.587 47.6906V52.8027C163.587 52.904 163.563 52.984 163.515 53.0427C163.473 53.096 163.409 53.1227 163.323 53.1227C163.243 53.1227 163.179 53.1067 163.131 53.0747C163.083 53.0427 163.033 52.992 162.979 52.9227L159.499 48.2747H159.683V52.7947C159.683 52.9013 159.657 52.984 159.603 53.0427C159.55 53.096 159.475 53.1227 159.379 53.1227ZM169.005 53.1387C168.402 53.1387 167.893 53.024 167.477 52.7947C167.066 52.5653 166.754 52.2347 166.541 51.8027C166.328 51.3707 166.221 50.8533 166.221 50.2507C166.221 49.8027 166.28 49.4 166.397 49.0427C166.52 48.6853 166.696 48.384 166.925 48.1386C167.16 47.888 167.442 47.696 167.773 47.5627C168.109 47.424 168.488 47.3547 168.909 47.3547C169.245 47.3547 169.57 47.4027 169.885 47.4987C170.2 47.5893 170.48 47.736 170.725 47.9387C170.789 47.9867 170.829 48.04 170.845 48.0986C170.861 48.1573 170.858 48.216 170.837 48.2747C170.821 48.3333 170.792 48.384 170.749 48.4267C170.712 48.464 170.661 48.4853 170.597 48.4907C170.538 48.496 170.477 48.4773 170.413 48.4346C170.194 48.264 169.962 48.1413 169.717 48.0667C169.472 47.9867 169.2 47.9467 168.901 47.9467C168.474 47.9467 168.112 48.0373 167.813 48.2187C167.52 48.4 167.296 48.6613 167.141 49.0027C166.992 49.344 166.917 49.76 166.917 50.2507C166.917 50.9973 167.09 51.568 167.437 51.9627C167.789 52.3573 168.317 52.5547 169.021 52.5547C169.277 52.5547 169.528 52.5307 169.773 52.4827C170.018 52.4293 170.25 52.3573 170.469 52.2667L170.325 52.6427V50.6507H169.181C169.085 50.6507 169.013 50.6267 168.965 50.5787C168.917 50.5307 168.893 50.4667 168.893 50.3867C168.893 50.3013 168.917 50.2373 168.965 50.1947C169.013 50.152 169.085 50.1307 169.181 50.1307H170.613C170.704 50.1307 170.773 50.1547 170.821 50.2027C170.869 50.2507 170.893 50.32 170.893 50.4107V52.4987C170.893 52.5787 170.88 52.6453 170.853 52.6987C170.826 52.752 170.781 52.792 170.717 52.8187C170.493 52.9093 170.224 52.9867 169.909 53.0507C169.6 53.1093 169.298 53.1387 169.005 53.1387Z" fill="#0C4C78"/>
<line x1="11.1113" y1="75" x2="167.519" y2="75" stroke="#147DC4" stroke-width="2" stroke-linecap="square"/>
<mask id="mask0_140_234" style="mask-type:alpha" maskUnits="userSpaceOnUse" x="0" y="0" width="62" height="72">
<path d="M48.5814 46.6056C48.0986 45.7629 47.0302 45.4758 46.1885 45.9588L43.6422 47.4188C42.8046 47.8985 42.5148 48.9743 42.9967 49.8154L49.435 62.797C50.0442 63.8593 51.3965 64.23 52.4633 63.6187L55.6845 61.7685C56.7453 61.1546 57.1144 59.7975 56.5077 58.7335L48.5814 46.6056Z" fill="black"/>
<path d="M59.4491 0H1.92617C0.861972 0 0 0.863022 0 1.92956V54.3147C0 55.382 0.861972 56.2476 1.92617 56.2476H27.9269C28.3035 55.2875 28.6692 54.4168 28.9228 53.8164L30.3561 50.4488L31.7885 53.8164C32.0438 54.4168 32.4061 55.2875 32.7853 56.2476H44.5723L41.7193 50.4919C41.3148 49.7614 41.2104 48.9136 41.4311 48.1038C41.6199 47.3961 42.0412 46.789 42.6225 46.3617L42.0926 45.4345C41.3705 44.1746 39.7645 43.7388 38.5048 44.4634L38.525 44.4423L30.1421 48.005L30.0249 47.2129L52.86 34.0429L53.519 34.5741L46.212 40.0233L46.2373 40.0199C44.9768 40.7419 44.5394 42.3523 45.2615 43.6122L45.259 43.6156L45.7899 44.5444C46.1918 44.3713 46.6173 44.2776 47.0554 44.2776C48.1837 44.2776 49.2352 44.878 49.8099 45.8432L56.6028 56.2484H59.4483C60.5099 56.2484 61.3736 55.3829 61.3736 54.3155V1.92956C61.3744 0.863022 60.5108 0 59.4491 0ZM31.6503 43.4391V29.4821H49.4602L51.0611 32.2856L31.6503 43.4391ZM10.6091 38.9365C8.0021 39.1408 5.64958 40.2462 3.85065 41.9317V29.4821H11.3017C10.2577 30.9945 9.64347 32.8219 9.64347 34.8012C9.64263 36.29 9.99652 37.6909 10.6091 38.9365ZM18.3592 25.4262C16.3547 25.5715 14.5314 26.3484 13.0711 27.5525H3.84981V3.85996H29.7241V27.5525H19.5743L18.3592 25.4262ZM20.6814 29.4821H29.7241V44.5436L31.2096 43.6941L29.4065 44.7268L29.4014 44.7302L20.6814 29.4821ZM29.95 46.6995L29.8632 46.1371L52.0503 33.3876L52.4623 33.7187L29.95 46.6995ZM57.5238 26.5392C55.0179 22.252 50.3752 19.3648 45.0576 19.3648C44.6035 19.3648 44.1561 19.3901 43.7095 19.4357L48.353 27.5517H31.6503V3.85996H57.5238V26.5392Z" fill="black"/>
<path d="M30.3558 54.4279C30.3558 54.4279 27.8062 60.4251 27.8062 61.8395C27.8062 63.2498 28.9487 64.3957 30.3558 64.3957C31.7689 64.3957 32.9064 63.2498 32.9064 61.8395C32.9072 60.4251 30.3558 54.4279 30.3558 54.4279Z" fill="black"/>
<path d="M32.9072 69.4834C32.9072 70.6842 33.8796 71.6587 35.0761 71.6587C36.2759 71.6587 37.2457 70.6842 37.2457 69.4834C37.2457 68.2826 35.0761 63.183 35.0761 63.183C35.0761 63.183 32.9072 68.2826 32.9072 69.4834Z" fill="black"/>
</mask>
<g mask="url(#mask0_140_234)">
<rect width="61.5093" height="72.381" fill="url(#paint0_linear_140_234)"/>
<rect width="61.5093" height="72.381" fill="black" fill-opacity="0.2"/>
</g>
<defs>
<linearGradient id="paint0_linear_140_234" x1="0" y1="36.1905" x2="61.5093" y2="36.1905" gradientUnits="userSpaceOnUse">
<stop stop-color="#2E398C"/>
<stop offset="1" stop-color="#04ADEF"/>
</linearGradient>
</defs>
</svg>
